# xmcd CD database file
#
# Track frame offsets:
#	187
#	19392
#	44815
#	68855
#	85335
#	107650
#	128225
#	149655
#	168430
#
# Disc length: 2490 seconds
#
# Revision: 4
# Processed by: cddbd v1.5.2PL0 Copyright (c) Steve Scherf et al.
# Submitted via: CDex 1.51
#
DISCID=8709b809
DTITLE=????? - ?BOX ~Disc 2~
DYEAR=1996
DGENRE=New Age
TTITLE0=??????
TTITLE1=?????? 
TTITLE2=Little Tokyo
TTITLE3=??????
TTITLE4=??????????
TTITLE5=GLORIA
TTITLE6=????????????
TTITLE7=?????????
TTITLE8=???????? 
EXTD=YEAR: 1996
EXTT0=
EXTT1=
EXTT2=
EXTT3=
EXTT4=
EXTT5=
EXTT6=
EXTT7=
EXTT8=
PLAYORDER=
